GRF
version=1
nRows=7
nColumns=46
inDegrees=no
endheader
time	plate1_ground_force_vx	plate1_ground_force_vy	plate1_ground_force_vz	plate1_ground_force_px	plate1_ground_force_py	plate1_ground_force_pz	plate1_ground_torque_x	plate1_ground_torque_y	plate1_ground_torque_z	plate2_ground_force_vx	plate2_ground_force_vy	plate2_ground_force_vz	plate2_ground_force_px	plate2_ground_force_py	plate2_ground_force_pz	plate2_ground_torque_x	plate2_ground_torque_y	plate2_ground_torque_z	plate3_ground_force_vx	plate3_ground_force_vy	plate3_ground_force_vz	plate3_ground_force_px	plate3_ground_force_py	plate3_ground_force_pz	plate3_ground_torque_x	plate3_ground_torque_y	plate3_ground_torque_z	plate4_ground_force_vx	plate4_ground_force_vy	plate4_ground_force_vz	plate4_ground_force_px	plate4_ground_force_py	plate4_ground_force_pz	plate4_ground_torque_x	plate4_ground_torque_y	plate4_ground_torque_z	plate5_ground_force_vx	plate5_ground_force_vy	plate5_ground_force_vz	plate5_ground_force_px	plate5_ground_force_py	plate5_ground_force_pz	plate5_ground_torque_x	plate5_ground_torque_y	plate5_ground_torque_z
      1.13000000	      0.00000000	      0.00000000	      0.00000000	      0.00000000	      0.00000000	      0.00000000	      0.00000000	      0.00000000	      0.00000000	    105.50264781	    570.25690418	     15.04431095	     -0.10821247	      0.00000000	      0.12904428	      0.00000000	      0.11711476	     -0.00000000	    -19.39166908	    121.27025907	      5.69679652	      0.37602963	      0.00000000	      0.19323341	      0.00000000	     -0.08162475	     -0.00000000	      0.00000000	      0.00000000	      0.00000000	      0.00000000	      0.00000000	      0.00000000	      0.00000000	      0.00000000	      0.00000000	      0.00000000	      0.00000000	      0.00000000	      0.00000000	      0.00000000	      0.00000000	      0.00000000	      0.00000000	      0.00000000
      1.14000000	      0.00000000	      0.00000000	      0.00000000	      0.00000000	      0.00000000	      0.00000000	      0.00000000	      0.00000000	      0.00000000	    109.84053628	    541.06176126	     12.77955361	     -0.10719299	      0.00000000	      0.12940901	      0.00000000	      0.10434268	     -0.00000000	    -27.48619415	    158.02019221	      5.55702476	      0.37876265	      0.00000000	      0.19332880	      0.00000000	     -0.11342669	     -0.00000000	      0.00000000	      0.00000000	      0.00000000	      0.00000000	      0.00000000	      0.00000000	      0.00000000	      0.00000000	      0.00000000	      0.00000000	      0.00000000	      0.00000000	      0.00000000	      0.00000000	      0.00000000	      0.00000000	      0.00000000	      0.00000000
      1.15000000	      0.00000000	      0.00000000	      0.00000000	      0.00000000	      0.00000000	      0.00000000	      0.00000000	      0.00000000	      0.00000000	    111.57108460	    502.96883871	     10.03136427	     -0.10624217	      0.00000000	      0.12990888	      0.00000000	      0.07735455	     -0.00000000	    -36.69413634	    196.37815793	      4.24125438	      0.38221673	      0.00000000	      0.19368168	      0.00000000	     -0.14710754	     -0.00000000	      0.00000000	      0.00000000	      0.00000000	      0.00000000	      0.00000000	      0.00000000	      0.00000000	      0.00000000	      0.00000000	      0.00000000	      0.00000000	      0.00000000	      0.00000000	      0.00000000	      0.00000000	      0.00000000	      0.00000000	      0.00000000
      1.16000000	      0.00000000	      0.00000000	      0.00000000	      0.00000000	      0.00000000	      0.00000000	      0.00000000	      0.00000000	      0.00000000	    110.15874978	    456.44813646	      7.01120107	     -0.10549866	      0.00000000	      0.13056183	      0.00000000	      0.04394083	      0.00000000	    -46.42304947	    235.04348172	      1.66603119	      0.38634414	      0.00000000	      0.19425355	      0.00000000	     -0.18124093	     -0.00000000	      0.00000000	      0.00000000	      0.00000000	      0.00000000	      0.00000000	      0.00000000	      0.00000000	      0.00000000	      0.00000000	      0.00000000	      0.00000000	      0.00000000	      0.00000000	      0.00000000	      0.00000000	      0.00000000	      0.00000000	      0.00000000
      1.17000000	      0.00000000	      0.00000000	      0.00000000	      0.00000000	      0.00000000	      0.00000000	      0.00000000	      0.00000000	      0.00000000	    105.25489075	    402.69792103	      3.99610931	     -0.10513208	      0.00000000	      0.13137913	     -0.00000000	      0.01114943	      0.00000000	    -55.99713685	    273.43301514	     -1.94821469	      0.39100791	      0.00000000	      0.19496314	      0.00000000	     -0.21627408	     -0.00000000	      0.00000000	      0.00000000	      0.00000000	      0.00000000	      0.00000000	      0.00000000	      0.00000000	      0.00000000	      0.00000000	      0.00000000	      0.00000000	      0.00000000	      0.00000000	      0.00000000	      0.00000000	      0.00000000	      0.00000000	      0.00000000
      1.18000000	      0.00000000	      0.00000000	      0.00000000	      0.00000000	      0.00000000	      0.00000000	      0.00000000	      0.00000000	      0.00000000	     96.83646915	    343.76746127	      1.28389920	     -0.10526009	      0.00000000	      0.13234971	     -0.00000000	     -0.01607178	      0.00000000	    -64.76861020	    311.46539931	     -6.12806648	      0.39600010	      0.00000000	      0.19569919	      0.00000000	     -0.25417168	     -0.00000000	      0.00000000	      0.00000000	      0.00000000	      0.00000000	      0.00000000	      0.00000000	      0.00000000	      0.00000000	      0.00000000	      0.00000000	      0.00000000	      0.00000000	      0.00000000	      0.00000000	      0.00000000	      0.00000000	      0.00000000	      0.00000000
      1.19000000	      0.00000000	      0.00000000	      0.00000000	      0.00000000	      0.00000000	      0.00000000	      0.00000000	      0.00000000	      0.00000000	     85.31989757	    282.51549632	     -0.86691947	     -0.10584160	      0.00000000	      0.13342015	     -0.00000000	     -0.03516923	      0.00000000	    -72.19735183	    349.08491473	    -10.29410393	      0.40108026	      0.00000000	      0.19634291	      0.00000000	     -0.29665667	     -0.00000000	      0.00000000	      0.00000000	      0.00000000	      0.00000000	      0.00000000	      0.00000000	      0.00000000	      0.00000000	      0.00000000	      0.00000000	      0.00000000	      0.00000000	      0.00000000	      0.00000000	      0.00000000	      0.00000000	      0.00000000	      0.00000000
